<?xml version="1.0" standalone="no"?>
<!DOCTYPE svg PUBLIC "-//W3C//DTD SVG 1.1//EN" "http://www.w3.org/Graphics/SVG/1.1/DTD/svg11.dtd" >
<svg xmlns="http://www.w3.org/2000/svg" xmlns:xlink="http://www.w3.org/1999/xlink" version="1.1">
<metadata>
Created by FontForge 20190801 at Fri Feb 17 20:24:16 2006
 By www-data
Copyright (c) Joshua Darden &#38; Phil's Fonts, Inc, 2004. All rights reserved.
</metadata>
<defs>
<font id="FreightSansBlack" horiz-adv-x="400" >
  <font-face 
    font-family="FreightSansBlack"
    font-weight="900"
    font-stretch="normal"
    units-per-em="1000"
    panose-1="2 0 6 3 4 0 0 2 0 4"
    ascent="800"
    descent="-200"
    x-height="468"
    cap-height="625"
    bbox="-78 -294 1269 854"
    underline-thickness="20"
    underline-position="-133"
    unicode-range="U+0020-FB04"
  />
<missing-glyph horiz-adv-x="500" 
 />
    <glyph glyph-name=".notdef" horiz-adv-x="500" 
 />
    <glyph glyph-name=".null" horiz-adv-x="0" 
 />
    <glyph glyph-name="nonmarkingreturn" horiz-adv-x="333" 
 />
    <glyph glyph-name="space" unicode=" " horiz-adv-x="184" 
 />
    <glyph glyph-name="exclam" unicode="!" horiz-adv-x="319" 
d="M48 652h224l-37 -426h-150zM269 80q0 -47 -29 -71t-81 -24t-81 24t-29 71t29 71t81 24t81 -24t29 -71z" />
    <glyph glyph-name="quotedbl" unicode="&#x22;" horiz-adv-x="503" 
d="M248 398l115 247l164 -36l-146 -211h-133zM8 398l115 247l164 -36l-146 -211h-133z" />
    <glyph glyph-name="numbersign" unicode="#" horiz-adv-x="654" 
d="M34 347v138h139l41 157h142l-42 -157h132l42 157h142l-42 -157h53v-138h-90l-30 -112h100v-138h-137l-46 -171h-142l46 171h-132l-46 -171h-142l46 171h-54v138h91l30 112h-101zM279 356l-35 -130h132l36 130h-133z" />
    <glyph glyph-name="dollar" unicode="$" horiz-adv-x="592" 
d="M299 136q72 4 72 43q0 17 -13.5 28t-43.5 19zM334 731h79l-17 -100q88 -16 148 -47l-31 -161q-55 28 -144 49l-28 -166h-79l16 95q1 -1 3.5 -1t3.5 -1v8q10 -5 70 -20q43 -12 74.5 -25.5t63 -35t48.5 -54.5t17 -76q0 -96 -71 -153.5t-204 -57.5h-10l-18 -107h-79l19 113
q-107 14 -169 50l30 161q83 -41 166 -53l16 93q-42 12 -71.5 25t-62.5 35t-50.5 56.5t-17.5 78.5q0 94 65 148t191 54h26zM293 489q-69 -1 -69 -42q0 -28 54 -46z" />
    <glyph glyph-name="percent" unicode="%" horiz-adv-x="880" 
d="M381 471q0 -85 -48 -132t-134 -47t-132.5 47t-46.5 132q0 84 48 131t133 47q86 0 133 -47t47 -131zM248 -15h-143l528 654h143zM860 154q0 -85 -48 -132t-134 -47t-132.5 47t-46.5 132q0 84 48 131t133 47q86 0 133 -47t47 -131zM252 470q0 84 -52 84q-24 0 -38 -21.5
t-14 -62.5q0 -83 53 -83q51 0 51 83zM731 153q0 84 -52 84q-24 0 -38 -21.5t-14 -62.5q0 -83 53 -83q51 0 51 83z" />
    <glyph glyph-name="ampersand" unicode="&#x26;" horiz-adv-x="676" 
d="M297 395q40 33 40 69q0 26 -16 41t-41 15q-23 0 -38 -15.5t-15 -37.5q0 -42 70 -72zM360 180q-65 67 -126 90q-43 -30 -43 -74q0 -34 22.5 -52.5t52.5 -18.5q52 0 94 55zM432 87q-89 -102 -207 -102q-89 0 -147.5 46t-58.5 123q0 62 40.5 106.5t95.5 57.5
q-37 21 -62.5 58.5t-25.5 82.5q0 72 58 126t157 54q93 0 153.5 -40.5t60.5 -110.5q0 -50 -35.5 -85.5t-85.5 -48.5q14 -7 63 -42l39 84h197l-138 -183l149 -189l-192 -34z" />
    <glyph glyph-name="quotesingle" unicode="'" horiz-adv-x="263" 
d="M8 398l115 247l164 -36l-146 -211h-133z" />
    <glyph glyph-name="parenleft" unicode="(" horiz-adv-x="456" 
d="M355 -269q-127 69 -216 204.5t-89 307.5t89 307.5t216 204.5l104 -132q-100 -65 -162.5 -163t-62.5 -217t62.5 -217t162.5 -163z" />
    <glyph glyph-name="parenright" unicode=")" horiz-adv-x="456" 
d="M-2 -137q100 64 162.5 162.5t62.5 217.5t-62.5 217.5t-162.5 162.5l104 132q127 -69 216 -204.5t89 -307.5t-89 -307.5t-216 -204.5z" />
    <glyph glyph-name="asterisk" unicode="*" horiz-adv-x="421" 
d="M96 248l-87 121l155 54v11l-155 53l88 121l97 -132l10 4l6 165l142 -47l-99 -135l7 -8l157 50v-151l-157 51l-6 -10l96 -136l-143 -46l-2 166l-11 3z" />
    <glyph glyph-name="plus" unicode="+" horiz-adv-x="547" 
d="M349 172v-170h-150v170h-168l3 139h165v170h150v-170h165l3 -139h-168z" />
    <glyph glyph-name="comma" unicode="," horiz-adv-x="308" 
d="M15 87q6 49 42 78t86 29q61 0 99 -43t38 -103q0 -121 -179 -208l-86 73q71 46 87 65q12 15 12 29q0 22 -22 40.5t-77 39.5z" />
    <glyph glyph-name="hyphen" unicode="-" horiz-adv-x="404" 
d="M25 169v147h355v-147h-355z" />
    <glyph glyph-name="period" unicode="." horiz-adv-x="308" 
d="M264 90q0 -49 -30 -77t-80 -28t-80 28t-30 77t30 77t80 28t80 -28t30 -77z" />
    <glyph glyph-name="slash" unicode="/" horiz-adv-x="322" 
d="M111 -199h-160l243 901h160z" />
    <glyph glyph-name="zero" unicode="0" horiz-adv-x="572" 
d="M544 243q0 -118 -70.5 -188t-190.5 -70q-119 0 -187 68.5t-68 185.5t70 187t188 70q120 0 189 -68t69 -185zM360 240q0 59 -20 89.5t-55 30.5t-54.5 -30.5t-19.5 -89.5t20 -89t55 -30q34 0 54 30.5t20 88.5z" />
    <glyph glyph-name="one" unicode="1" horiz-adv-x="409" 
d="M149 311l-116 -21l-3 153l309 55v-498h-190v311z" />
    <glyph glyph-name="two" unicode="2" horiz-adv-x="522" 
d="M39 0v125q23 14 51.5 30.5t45 26t37 22t31.5 20t24 16.5t19.5 15.5t12.5 14t8 14t2 13.5q0 45 -66 45q-63 0 -147 -51l-38 137q47 30 111.5 49.5t124.5 19.5q104 0 161.5 -45t57.5 -118q0 -111 -184 -185h206l3 -149h-460z" />
    <glyph glyph-name="three" unicode="3" horiz-adv-x="503" 
d="M341 177q70 -14 108 -57t38 -101q0 -94 -78.5 -150t-192.5 -56q-110 0 -209 51l20 148q91 -50 169 -55q46 -2 71.5 14.5t25.5 48.5t-23.5 47.5t-79.5 17.5q-46 2 -76 -3v132q28 4 40 6t34 6.5t32.5 9.5t22.5 13t17 19t5 26q0 53 -80 53q-60 0 -140 -52l-37 133
q103 69 229 69q100 0 166 -45.5t66 -122.5q0 -53 -36 -93t-92 -59z" />
    <glyph glyph-name="four" unicode="4" horiz-adv-x="599" 
d="M489 0v-169h-176v169h-260l-24 118l244 365h216v-339h97l3 -144h-100zM324 343l-128 -204h128v204z" />
    <glyph glyph-name="five" unicode="5" horiz-adv-x="523" 
d="M231 236q3 0 14.5 0.5t22.5 0.5q110 0 169 -52.5t59 -135.5q0 -104 -73.5 -170t-203.5 -66q-111 0 -195 34l14 155q84 -41 173 -41q104 0 104 71q0 72 -123 72q-72 0 -126 -21l-21 26l44 374h394l3 -149h-242z" />
    <glyph glyph-name="six" unicode="6" horiz-adv-x="598" 
d="M34 287q0 155 115 268.5t303 131.5l44 -150q-102 -12 -179 -55t-96 -104l5 -4q56 60 155 60q87 0 139 -52t52 -147q0 -109 -70.5 -179.5t-198.5 -70.5q-126 0 -197.5 82.5t-71.5 219.5zM232 225q0 -43 19.5 -73t55.5 -30q33 0 52 25t19 69q0 39 -19 61t-54 22
q-39 0 -69 -24q-4 -20 -4 -50z" />
    <glyph glyph-name="seven" unicode="7" horiz-adv-x="523" 
d="M19 326l3 157h482v-121l-260 -531h-183l254 495h-296z" />
    <glyph glyph-name="eight" unicode="8" horiz-adv-x="549" 
d="M297 373q48 32 48 71q0 33 -18 51t-50 18q-30 0 -48 -18t-18 -46q0 -51 86 -76zM251 252q-52 -31 -52 -74q0 -30 21.5 -49.5t59.5 -19.5q35 0 54.5 17t19.5 48q0 53 -103 78zM396 333q128 -45 128 -152q0 -89 -63.5 -142.5t-189.5 -53.5q-108 0 -177 45t-69 131
q0 102 130 133q-121 49 -121 152q0 90 61 141.5t185 51.5q106 0 170.5 -45t64.5 -131q0 -96 -119 -130z" />
    <glyph glyph-name="nine" unicode="9" horiz-adv-x="598" 
d="M564 195q0 -155 -115 -267.5t-303 -130.5l-44 148q102 12 177.5 55.5t90.5 103.5l-5 4q-19 -25 -59 -42.5t-84 -17.5q-88 0 -142 50.5t-54 142.5q0 110 71.5 183t197.5 73t197.5 -82.5t71.5 -219.5zM366 257q0 44 -19.5 73.5t-55.5 29.5q-33 0 -52 -25t-19 -69
q0 -39 19 -61t54 -22q39 0 69 24q4 20 4 50z" />
    <glyph glyph-name="colon" unicode=":" horiz-adv-x="308" 
d="M264 358q0 -49 -30 -77t-80 -28t-80 28t-30 77t30 77t80 28t80 -28t30 -77zM264 90q0 -49 -30 -77t-80 -28t-80 28t-30 77t30 77t80 28t80 -28t30 -77z" />
    <glyph glyph-name="semicolon" unicode=";" horiz-adv-x="308" 
d="M264 358q0 -49 -30 -77t-80 -28t-80 28t-30 77t30 77t80 28t80 -28t30 -77zM15 87q6 49 42 78t86 29q61 0 99 -43t38 -103q0 -121 -179 -208l-86 73q71 46 87 65q12 15 12 29q0 22 -22 40.5t-77 39.5z" />
    <glyph glyph-name="less" unicode="&#x3c;" horiz-adv-x="514" 
d="M452 -3l-401 178v120l401 179v-144l-218 -90v-10l218 -88v-145z" />
    <glyph glyph-name="equal" unicode="=" horiz-adv-x="527" 
d="M51 284l-5 137h437l-5 -137h-427zM46 48l5 137h427l5 -137h-437z" />
    <glyph glyph-name="greater" unicode="&#x3e;" horiz-adv-x="516" 
d="M58 -3v145l217 88v10l-217 90v144l400 -179v-120z" />
    <glyph glyph-name="question" unicode="?" horiz-adv-x="450" 
d="M420 435q0 -107 -122 -143q-59 -17 -69 -23q0 -1 13 -11t27 -20.5t15 -11.5q-8 -1 -20.5 -2.5t-21.5 -3t-17 -2.5q-12 -1 -29 -3.5t-27 -4t-13 -1.5q-42 15 -64 47t-22 65q0 70 100 93q25 6 35 8.5t20.5 7t13.5 9t3 11.5q0 35 -82 35q-63 0 -120 -24l9 156q55 23 127 23
q109 0 176.5 -57.5t67.5 -147.5zM304 80q0 -47 -29 -71t-81 -24t-81 24t-29 71t29 71t81 24t81 -24t29 -71z" />
    <glyph glyph-name="at" unicode="@" horiz-adv-x="872" 
d="M623 196q-11 -48 2 -69.5t52 -21.5q47 0 85 56t38 148q0 135 -102 221.5t-238 86.5q-151 0 -257.5 -111t-106.5 -263q0 -145 94.5 -245t238.5 -100q60 0 129 21l12 -39q-72 -24 -143 -24q-163 0 -270 111.5t-107 274.5q0 171 119.5 293.5t290.5 122.5q160 0 273 -96.5
t113 -252.5q0 -132 -65.5 -204t-159.5 -72q-114 0 -143 89q-50 -62 -122 -62q-58 0 -97 44.5t-39 121.5q0 103 59.5 167t152.5 64q33 0 76 -19l167 20zM499 329q-26 22 -50 22q-34 0 -55 -33.5t-21 -80.5q0 -32 14 -49.5t36 -17.5q24 0 46 18z" />
    <glyph glyph-name="A" unicode="A" horiz-adv-x="679" 
d="M678 0h-195l-39 117h-212l-37 -117h-194l215 625h251zM340 484l-70 -219h136z" />
    <glyph glyph-name="B" unicode="B" horiz-adv-x="648" 
d="M486 329q61 -9 100.5 -48t39.5 -97q0 -40 -11 -70.5t-38 -57.5t-81.5 -41.5t-133.5 -14.5h-304v625h303q74 0 124.5 -12.5t76 -36t35.5 -50.5t10 -63q0 -103 -121 -134zM410 428q0 57 -74 57h-88v-117h82q80 0 80 60zM427 199q0 58 -89 58h-90v-117h92q87 0 87 59z" />
    <glyph glyph-name="C" unicode="C" horiz-adv-x="619" 
d="M537 433q-72 42 -150 42q-72 0 -113 -43t-41 -118q0 -77 39.5 -120.5t114.5 -43.5q81 0 159 46l43 -169q-37 -18 -97 -30t-115 -12q-160 0 -251 83t-91 242q0 153 93 241.5t257 88.5q113 0 211 -44z" />
    <glyph glyph-name="D" unicode="D" horiz-adv-x="700" 
d="M669 317q0 -146 -96 -231.5t-270 -85.5h-245v625h259q168 0 260 -83t92 -225zM471 311q0 86 -40 124.5t-127 38.5h-49v-323h59q157 0 157 160z" />
    <glyph glyph-name="E" unicode="E" horiz-adv-x="587" 
d="M58 0v625h488v-153h-296v-82h234v-153h-234v-84h296v-153h-488z" />
    <glyph glyph-name="F" unicode="F" horiz-adv-x="564" 
d="M58 625h478v-158h-284v-90h222v-156h-222v-221h-194v625z" />
    <glyph glyph-name="G" unicode="G" horiz-adv-x="690" 
d="M645 42q-112 -57 -262 -57q-160 0 -254 85t-94 240t93.5 242.5t256.5 87.5q156 0 249 -54l-61 -162q-92 51 -180 51q-75 0 -118.5 -44.5t-43.5 -116.5q0 -171 158 -171q51 0 81 12v63h-143v151h318v-327z" />
    <glyph glyph-name="H" unicode="H" horiz-adv-x="714" 
d="M459 0v233h-204v-233h-197v625h197v-228h204v228h197v-625h-197z" />
    <glyph glyph-name="I" unicode="I" horiz-adv-x="315" 
d="M59 0v625h197v-625h-197z" />
    <glyph glyph-name="J" unicode="J" horiz-adv-x="499" 
d="M447 236q0 -251 -242 -251q-120 0 -198 45l41 152q69 -36 120 -36q46 0 64 23.5t18 81.5v374h197v-389z" />
    <glyph glyph-name="K" unicode="K" horiz-adv-x="665" 
d="M256 360l178 265h221l-225 -303l232 -322h-231l-175 264h-1v-264h-197v625h197v-265h1z" />
    <glyph glyph-name="L" unicode="L" horiz-adv-x="533" 
d="M58 0v625h197v-464h241v-161h-438z" />
    <glyph glyph-name="M" unicode="M" horiz-adv-x="891" 
d="M660 462l-109 -452h-214l-110 450l-2 -460h-181l22 625h283l98 -446l98 446h280l22 -625h-185z" />
    <glyph glyph-name="N" unicode="N" horiz-adv-x="733" 
d="M492 625h183v-631h-209l-225 360v-354h-183v625h212l222 -355v355z" />
    <glyph glyph-name="O" unicode="O" horiz-adv-x="739" 
d="M704 315q0 -150 -95.5 -240t-240.5 -90q-148 0 -240.5 84t-92.5 242q0 150 95.5 239.5t240.5 89.5q148 0 240.5 -83.5t92.5 -241.5zM506 311q0 79 -35.5 126.5t-102.5 47.5t-101 -46t-34 -124q0 -80 35.5 -127.5t102.5 -47.5q66 0 100.5 46.5t34.5 124.5z" />
    <glyph glyph-name="P" unicode="P" horiz-adv-x="624" 
d="M596 401q0 -114 -74 -173.5t-217 -59.5h-50v-168h-197v625h260q131 0 204.5 -61t73.5 -163zM401 397q0 78 -98 78h-54v-163l50 1q102 1 102 84z" />
    <glyph glyph-name="Q" unicode="Q" horiz-adv-x="739" 
d="M731 -8l-76 -158l-281 151h-6q-148 0 -240.5 84t-92.5 242q0 150 95.5 239.5t240.5 89.5q148 0 240.5 -83.5t92.5 -241.5q0 -169 -133 -261zM506 311q0 79 -35.5 126.5t-102.5 47.5t-101 -46t-34 -124q0 -80 36 -129t102 -49q67 0 101 46.5t34 127.5z" />
    <glyph glyph-name="R" unicode="R" horiz-adv-x="654" 
d="M255 0h-197v625h283q129 0 197.5 -54.5t68.5 -150.5q0 -132 -122 -180l155 -240h-218l-112 190l-55 -5v-185zM319 326q45 5 64.5 23.5t19.5 56.5q0 36 -22.5 52.5t-75.5 16.5h-54v-150z" />
    <glyph glyph-name="S" unicode="S" horiz-adv-x="592" 
d="M286 144q75 0 75 36q0 7 -2.5 12t-8.5 9.5t-11.5 8t-18 7.5t-21 6.5t-26.5 8t-29 8.5q-34 10 -58 18.5t-54.5 25.5t-49.5 36.5t-32.5 49.5t-13.5 67q0 94 65 148t191 54q146 0 252 -55l-31 -161q-116 57 -220 57q-60 0 -60 -33q0 -10 9 -18.5t30.5 -16.5t36 -12.5
t46.5 -12.5q43 -12 74.5 -25.5t63 -35t48.5 -54.5t17 -76q0 -96 -71 -153.5t-204 -57.5q-154 0 -257 56l30 161q120 -58 230 -58z" />
    <glyph glyph-name="T" unicode="T" horiz-adv-x="623" 
d="M410 464v-464h-197v464h-189v161h575v-161h-189z" />
    <glyph glyph-name="U" unicode="U" horiz-adv-x="686" 
d="M634 262q0 -139 -78.5 -208t-212.5 -69q-133 0 -212 63t-79 198v379h197v-355q0 -63 23 -93t74 -30q49 0 70.5 26.5t21.5 91.5v360h196v-363z" />
    <glyph glyph-name="V" unicode="V" horiz-adv-x="671" 
d="M459 0h-250l-202 625h204l124 -438l124 438h205z" />
    <glyph glyph-name="W" unicode="W" horiz-adv-x="985" 
d="M387 0h-207l-161 625h212l57 -408l95 408h225l95 -408l58 408h205l-162 -625h-208l-104 407z" />
    <glyph glyph-name="X" unicode="X" horiz-adv-x="681" 
d="M223 0h-213l211 313l-205 312h218l106 -181l110 181h215l-207 -306l213 -319h-219l-114 191z" />
    <glyph glyph-name="Y" unicode="Y" horiz-adv-x="648" 
d="M421 231v-231h-193v232l-218 393h206l110 -224l106 224h206z" />
    <glyph glyph-name="Z" unicode="Z" horiz-adv-x="611" 
d="M35 0v126l291 338h-285v161h533v-127l-289 -336h288v-162h-538z" />
    <glyph glyph-name="bracketleft" unicode="[" horiz-adv-x="440" 
d="M60 -197v897h375v-139h-203v-619h203v-139h-375z" />
    <glyph glyph-name="backslash" unicode="\" horiz-adv-x="331" 
d="M138 702l243 -901h-160l-243 901h160z" />
    <glyph glyph-name="bracketright" unicode="]" horiz-adv-x="441" 
d="M6 -58h203v619h-203v139h375v-897h-375v139z" />
    <glyph glyph-name="asciicircum" unicode="^" 
d="M276 530l-75 98h-3l-71 -98h-131l121 187h166l121 -187h-128z" />
    <glyph glyph-name="underscore" unicode="_" horiz-adv-x="585" 
d="M-6 -147v147h597v-147h-597z" />
    <glyph glyph-name="grave" unicode="`" horiz-adv-x="398" 
d="M188 530l-181 187h200l96 -187h-115z" />
    <glyph glyph-name="a" unicode="a" horiz-adv-x="542" 
d="M304 196q-56 -5 -78 -16.5t-22 -37.5q0 -18 13 -28.5t32 -10.5q35 0 55 22v71zM306 60q-21 -25 -34.5 -37.5t-41.5 -25t-62 -12.5q-58 0 -98.5 37.5t-40.5 90.5q0 161 275 165v7q0 54 -71 54q-63 0 -163 -45l-40 133q114 56 236 56q128 0 179.5 -55t49.5 -161l-1 -109
q0 -21 6 -26.5t28 -8.5l-19 -131q-157 -23 -200 68h-3z" />
    <glyph glyph-name="b" unicode="b" horiz-adv-x="589" 
d="M566 242q0 -117 -69 -186t-164 -69q-57 0 -109 20l-177 -22v670l191 22v-259q61 65 132 65q84 0 140 -65t56 -176zM376 231q0 105 -77 105q-37 0 -61 -26v-175q24 -13 55 -13q39 0 61 29t22 80z" />
    <glyph glyph-name="c" unicode="c" horiz-adv-x="498" 
d="M471 23q-64 -38 -179 -38q-124 0 -195 62t-71 182q0 118 71.5 186t196.5 68q110 0 180 -39l-34 -137q-66 35 -121 35q-47 0 -73 -29.5t-26 -76.5q0 -53 28.5 -81t77.5 -28q58 0 118 34z" />
    <glyph glyph-name="d" unicode="d" horiz-adv-x="592" 
d="M354 655l191 22v-677h-191v51q-61 -65 -132 -65q-84 0 -140 65t-56 176q0 117 69 186t164 69q50 0 95 -16v189zM354 334q-24 13 -55 13q-39 0 -61 -29t-22 -80q0 -49 21.5 -77t55.5 -28q37 0 61 26v175z" />
    <glyph glyph-name="e" unicode="e" horiz-adv-x="538" 
d="M210 186q10 -69 109 -69q73 0 159 49l15 -142q-84 -38 -194 -38q-128 0 -201 63t-73 182q0 116 72.5 184t191.5 68q106 0 163 -55.5t57 -147.5q0 -57 -10 -86l-289 -7v-1zM332 273q1 3 1 10q0 77 -55 77q-29 0 -47 -24t-21 -63h122z" />
    <glyph glyph-name="f" unicode="f" horiz-adv-x="399" 
d="M385 518q-39 17 -80 17q-47 0 -47 -52v-24h122l-3 -144h-109v-315h-191v313l-80 6l4 122l75 22l1 30q4 105 51.5 154t146.5 49q85 0 144 -24z" />
    <glyph glyph-name="g" unicode="g" horiz-adv-x="555" 
d="M203 299q0 -71 55 -71q53 0 53 74q0 72 -53 72q-55 0 -55 -75zM171 -61q-15 -19 -15 -39q0 -23 27 -36t75 -13q55 0 88 12.5t33 35.5q0 22 -25 29.5t-86 7.5q-16 0 -53.5 1.5t-43.5 1.5zM111 -44q-37 9 -64 31.5t-27 56.5q0 36 29.5 67t75.5 44q-46 19 -74 57t-28 88
q0 81 64.5 132t173.5 51q76 0 154 -36l138 11l9 -147l-90 12q3 -5 3 -28q0 -72 -60 -120t-155 -48q-32 0 -60 4q-18 -11 -18 -26q0 -13 17.5 -17.5t57.5 -4.5h62q222 0 222 -135q0 -89 -94 -144t-220 -55q-103 0 -168 28t-65 87q0 34 30 60t87 32z" />
    <glyph glyph-name="h" unicode="h" horiz-adv-x="590" 
d="M354 0v268q0 58 -51 58q-35 0 -65 -28v-298h-191v655l191 22v-279q67 85 159 85q70 0 109 -43t39 -118v-322h-191z" />
    <glyph glyph-name="i" unicode="i" horiz-adv-x="285" 
d="M253 611q0 -47 -29 -71t-81 -24t-81 24t-29 71t29 71t81 24t81 -24t29 -71zM47 0v455l191 23v-478h-191z" />
    <glyph glyph-name="j" unicode="j" horiz-adv-x="285" 
d="M253 611q0 -47 -29 -71t-81 -24t-81 24t-29 71t29 71t81 24t81 -24t29 -71zM-37 -111q46 22 65 54t19 102v410l191 23v-452q0 -108 -39.5 -173.5t-129.5 -90.5z" />
    <glyph glyph-name="k" unicode="k" horiz-adv-x="571" 
d="M238 214v-214h-191v655l191 22v-404h1l117 195h215l-151 -223l152 -245h-212l-121 214h-1z" />
    <glyph glyph-name="l" unicode="l" horiz-adv-x="285" 
d="M47 0v655l191 22v-677h-191z" />
    <glyph glyph-name="m" unicode="m" horiz-adv-x="875" 
d="M639 0v268q0 58 -51 58q-28 0 -54 -19v-27v-280h-191v268q0 58 -51 58q-28 0 -54 -19v-307h-191v456l191 22v-67q67 72 148 72q47 0 83.5 -22.5t53.5 -63.5q67 86 159 86q70 0 109 -43t39 -118v-322h-191z" />
    <glyph glyph-name="n" unicode="n" horiz-adv-x="590" 
d="M354 0v268q0 58 -51 58q-35 0 -65 -28v-298h-191v456l191 22v-80q67 85 159 85q70 0 109 -43t39 -118v-322h-191z" />
    <glyph glyph-name="o" unicode="o" horiz-adv-x="575" 
d="M550 236q0 -116 -76.5 -183.5t-189.5 -67.5q-114 0 -186.5 64t-72.5 183q0 118 76 184.5t190 66.5q113 0 186 -65.5t73 -181.5zM361 235q0 109 -74 109q-73 0 -73 -111q0 -108 74 -108q73 0 73 110z" />
    <glyph glyph-name="p" unicode="p" horiz-adv-x="592" 
d="M238 418q61 65 131 65q84 0 140.5 -65t56.5 -176q0 -117 -69 -186t-164 -69q-50 0 -95 16v-196h-191v649l191 22v-60zM238 135q24 -13 55 -13q39 0 61 29t22 80q0 105 -77 105q-37 0 -61 -26v-175z" />
    <glyph glyph-name="q" unicode="q" horiz-adv-x="592" 
d="M354 -193v244q-61 -65 -132 -65q-84 0 -140 65t-56 176q0 117 69 186t164 69q67 0 109 -25l177 21v-671h-191zM354 334q-24 13 -55 13q-39 0 -61 -29t-22 -80q0 -49 21.5 -77t55.5 -28q37 0 61 26v175z" />
    <glyph glyph-name="r" unicode="r" horiz-adv-x="412" 
d="M238 0h-191v455l191 23v-62q36 67 103 67q40 0 73 -17l-36 -166q-24 11 -51 11q-57 0 -89 -54v-257z" />
    <glyph glyph-name="s" unicode="s" horiz-adv-x="491" 
d="M467 142q0 -67 -59.5 -112t-170.5 -45q-55 0 -117 11t-100 30l35 129q98 -45 185 -45q48 0 48 24q0 12 -12.5 19t-51.5 15q-102 18 -149.5 55t-47.5 106t58.5 111.5t166.5 42.5q51 0 113 -12.5t97 -30.5l-36 -128q-95 46 -174 46q-45 0 -45 -23q0 -11 13.5 -17t53.5 -15
q104 -21 148.5 -56t44.5 -105z" />
    <glyph glyph-name="t" unicode="t" horiz-adv-x="397" 
d="M377 0q-54 -15 -118 -15q-100 0 -148 42.5t-43 139.5l7 137l-66 15l3 122l66 23l2 109h185v-114h103l-3 -144h-115l-4 -120q-4 -59 62 -59q24 0 49 9z" />
    <glyph glyph-name="u" unicode="u" horiz-adv-x="579" 
d="M235 468v-268q0 -58 51 -58q30 0 55 20v306h191v-456l-191 -22v70q-62 -75 -149 -75q-70 0 -109 43t-39 118v322h191z" />
    <glyph glyph-name="v" unicode="v" horiz-adv-x="552" 
d="M385 -1h-225l-167 469h204l77 -300l78 300h207z" />
    <glyph glyph-name="w" unicode="w" horiz-adv-x="816" 
d="M136 -2l-127 470h192l45 -293l65 294h205l62 -285l38 284h195l-129 -470h-198l-74 288l-77 -288h-197z" />
    <glyph glyph-name="x" unicode="x" horiz-adv-x="539" 
d="M346 0l-76 133l-75 -133h-203l162 239l-161 229h200l76 -118l75 118h199l-158 -227l162 -241h-201z" />
    <glyph glyph-name="y" unicode="y" horiz-adv-x="542" 
d="M390 36l-19 -51q-37 -107 -88.5 -148t-138.5 -41t-159 32l57 139q49 -21 72 -21q24 0 35.5 7.5t19.5 28.5l5 17l-184 469h205l81 -279l70 279h204z" />
    <glyph glyph-name="z" unicode="z" horiz-adv-x="484" 
d="M17 0v103l192 212h-183v153h439v-103l-192 -212h192v-153h-448z" />
    <glyph glyph-name="braceleft" unicode="{" horiz-adv-x="431" 
d="M417 -204q-53 1 -90 3t-77 7t-65.5 14t-47.5 23.5t-32 36.5t-10 51q0 46 12.5 102t12.5 75q0 32 -29.5 49t-92.5 22l-3 77l3 77q65 5 93.5 20t28.5 47q0 20 -12.5 77.5t-12.5 103.5q0 29 10 51t32 36.5t47.5 24t65.5 14.5t77 7t90 3v-113q-80 -6 -109 -19t-29 -44
q0 -10 8 -62t8 -100q0 -47 -43.5 -80.5t-108.5 -37.5v-10q65 -4 108.5 -38t43.5 -81t-8 -95t-8 -63q0 -33 28.5 -46.5t109.5 -19.5v-112z" />
    <glyph glyph-name="bar" unicode="|" horiz-adv-x="288" 
d="M60 701h168v-901h-168v901z" />
    <glyph glyph-name="braceright" unicode="}" horiz-adv-x="431" 
d="M433 179q-63 -5 -92.5 -22t-29.5 -49q0 -19 12.5 -75t12.5 -102q0 -35 -16 -59.5t-41.5 -38.5t-70 -22.5t-87 -11t-107.5 -3.5v112q81 6 109.5 19.5t28.5 46.5q0 15 -8 63t-8 95t43.5 81t108.5 38v10q-65 4 -108.5 37.5t-43.5 80.5q0 48 8 100t8 62q0 31 -29 44t-109 19
v113q82 -1 132.5 -6t98 -18.5t69.5 -41t22 -70.5q0 -46 -12.5 -103.5t-12.5 -77.5q0 -32 28.5 -47t93.5 -20l3 -77z" />
    <glyph glyph-name="asciitilde" unicode="~" 
d="M401 355q-9 -96 -38 -131t-78 -35q-36 0 -88.5 25.5t-62.5 25.5q-13 0 -19 -9t-9 -36h-110q9 95 38.5 130.5t77.5 35.5q36 0 88.5 -25.5t62.5 -25.5q13 0 19 9t9 36h110z" />
    <glyph glyph-name="nbspace" unicode="&#xa0;" horiz-adv-x="160" 
 />
    <glyph glyph-name="exclamdown" unicode="&#xa1;" horiz-adv-x="319" 
d="M55 544q0 45 29.5 70t74.5 25t74.5 -25t29.5 -70t-29.5 -70t-74.5 -25t-74.5 25t-29.5 70zM266 -28h-213l37 426h139z" />
    <glyph glyph-name="cent" unicode="&#xa2;" horiz-adv-x="500" 
d="M396 472q43 -10 78 -28l-34 -137q-38 20 -69 29l-20 -106l-20 -106q47 1 113 37l27 -138q-51 -33 -166 -38l-24 -128h-79l25 133q-94 15 -147.5 76t-53.5 163q0 118 71.5 186t196.5 68q17 0 25 -1q0 1 10 51q5 23 9 51h79zM293 343q-40 -8 -61.5 -37.5t-21.5 -69.5
q0 -66 45 -94z" />
    <glyph glyph-name="sterling" unicode="&#xa3;" horiz-adv-x="599" 
d="M107 351q-7 40 -7 71q0 99 66.5 158.5t180.5 59.5q116 0 196 -53q-3 -13 -8.5 -35.5t-8.5 -33.5q-18 -70 -18 -72q-65 47 -141 47q-42 0 -64 -23t-22 -63q0 -10 6 -56h155l-5 -77h-140q3 -21 3 -41q0 -37 -7 -64q40 -32 94 -32q31 0 49 19.5t24 69.5l134 -23
q-8 -111 -59 -164.5t-130 -53.5q-86 0 -167 81q-62 -62 -180 -84l-40 147q59 12 86.5 29t27.5 50q0 23 -9 66h-91l-5 77h80z" />
    <glyph glyph-name="currency" unicode="&#xa4;" horiz-adv-x="575" 
d="M28 348l-5 77h84q45 224 265 224q118 0 186 -39l-35 -137q-61 33 -123 33q-75 0 -98 -81h186l-5 -77h-193q-1 -8 -1 -30q0 -26 3 -39h161l5 -77h-149q27 -74 99 -74q59 0 120 33l27 -138q-61 -38 -185 -38q-225 0 -264 217h-83l5 77h72q-1 11 -1 32q0 25 1 37h-72z" />
    <glyph glyph-name="yen" unicode="&#xa5;" horiz-adv-x="648" 
d="M57 232l-5 77h157l-199 316h206l109 -215l107 215h206l-198 -316h157l-5 -77h-175v-59h175l5 -77h-176v-96h-193v96h-176l5 77h175v59h-175z" />
    <glyph glyph-name="brokenbar" unicode="&#xa6;" horiz-adv-x="460" 
d="M412 227q0 -241 -225 -241q-105 0 -175 45l13 170q73 -54 128 -54q31 0 46.5 19t15.5 65v394h197v-398z" />
    <glyph glyph-name="section" unicode="&#xa7;" horiz-adv-x="556" 
d="M538 302q0 -81 -88 -115q58 -38 58 -96q0 -67 -59.5 -112t-170.5 -45q-52 0 -114.5 11t-102.5 30l35 129q98 -45 185 -45q48 0 48 24q0 23 -111 47q-29 6 -46.5 10.5t-44.5 13t-43 19t-33 25t-25 35t-8 45.5q0 87 96 117q-46 38 -46 94q0 69 58.5 111.5t166.5 42.5
q49 0 112.5 -11.5t97.5 -31.5l-36 -128q-95 46 -174 46q-45 0 -45 -23q0 -4 1.5 -7.5t5.5 -6.5t8.5 -5.5t11.5 -5t13 -5t16 -5t17.5 -4.5t19.5 -5t19 -5q29 -9 50.5 -16.5t47 -20t42 -27t27.5 -35.5t11 -45zM394 261q0 22 -29.5 37t-91.5 33t-93 31q-18 -18 -18 -46
q0 -14 12 -25.5t35.5 -20.5t48 -16t59.5 -17.5t59 -19.5q18 18 18 44z" />
    <glyph glyph-name="dieresis" unicode="&#xa8;" 
d="M412 619q0 -85 -89 -85q-41 0 -65 21t-24 64t24 64t65 21q89 0 89 -85zM165 619q0 -43 -24 -64t-65 -21q-90 0 -90 85t90 85q41 0 65 -21t24 -64z" />
    <glyph glyph-name="copyright" unicode="&#xa9;" horiz-adv-x="835" 
d="M417 -81q-163 0 -277.5 115t-114.5 277q0 163 114.5 278.5t277.5 115.5t278 -115.5t115 -278.5q0 -162 -115 -277t-278 -115zM774 311q0 148 -105 254t-252 106t-251.5 -106t-104.5 -254t104.5 -253.5t251.5 -105.5q148 0 252.5 105.5t104.5 253.5zM535 368
q-38 22 -87 22q-35 0 -54 -21t-19 -55q0 -79 72 -79q48 0 94 23l34 -127q-59 -23 -135 -23q-105 0 -162 50.5t-57 152.5q0 97 58.5 152t167.5 55q59 0 134 -25z" />
    <glyph glyph-name="ordfeminine" unicode="&#xaa;" horiz-adv-x="420" 
d="M270 242q-27 31 -34 62h-5q-45 -61 -108 -61q-48 0 -77 28.5t-29 73.5q0 125 215 135v8q0 40 -51 40q-60 0 -124 -42l-40 102q31 23 85 38.5t103 15.5q89 0 134.5 -39.5t45.5 -112.5v-112q0 -54 40 -105zM232 422q-79 -11 -79 -49q0 -15 10 -24.5t27 -9.5q27 0 42 15v68z
" />
    <glyph glyph-name="guillemotleft" unicode="&#xab;" horiz-adv-x="618" 
d="M565 5l-254 158v140l254 159l34 -117l-112 -111v-2l112 -110zM265 15l-250 152v134l250 151l36 -115l-112 -103v-2l112 -102z" />
    <glyph glyph-name="logicalnot" unicode="&#xac;" horiz-adv-x="592" 
d="M354 334q-24 13 -55 13q-39 0 -61 -29t-22 -80q0 -49 21.5 -77t55.5 -28q37 0 61 26v175zM222 -14q-84 0 -140 65t-56 176q0 117 69 186t164 69q67 0 109 -25l177 21v-320q0 -21 6 -26.5t28 -8.5l-20 -131q-154 -23 -199 68q-67 -74 -138 -74z" />
    <glyph glyph-name="registered" unicode="&#xae;" horiz-adv-x="835" 
d="M417 -81q-163 0 -277.5 115t-114.5 277q0 163 114.5 278.5t277.5 115.5t278 -115.5t115 -278.5q0 -162 -115 -277t-278 -115zM774 311q0 148 -105 254t-252 106t-251.5 -106t-104.5 -254t104.5 -253.5t251.5 -105.5q148 0 252.5 105.5t104.5 253.5zM387 124h-149v385h208
q85 0 129 -34t44 -95q0 -34 -18.5 -63.5t-54.5 -44.5l86 -148h-158l-58 119l-29 -2v-117zM416 325q52 2 52 46q0 42 -54 42h-28v-89z" />
    <glyph glyph-name="macron" unicode="&#xaf;" 
d="M-4 555l14 104h381l14 -104h-409z" />
    <glyph glyph-name="degree" unicode="&#xb0;" horiz-adv-x="387" 
d="M359 473q0 -69 -45.5 -117t-120.5 -48q-74 0 -120 48.5t-46 116.5q0 70 45.5 118.5t120.5 48.5t120.5 -48t45.5 -119zM305 473q0 50 -30 82.5t-82 32.5t-82 -32.5t-30 -82.5q0 -47 30.5 -80t81.5 -33t81.5 33t30.5 80z" />
    <glyph glyph-name="plusminus" unicode="&#xb1;" horiz-adv-x="835" 
d="M417 -81q-163 0 -277.5 115t-114.5 277q0 163 114.5 278.5t277.5 115.5t278 -115.5t115 -278.5q0 -162 -115 -277t-278 -115zM774 311q0 148 -105 254t-252 106t-251.5 -106t-104.5 -254t104.5 -253.5t251.5 -105.5q148 0 252.5 105.5t104.5 253.5zM635 368
q0 -73 -49.5 -111.5t-139.5 -38.5h-31v-94h-153v386h191q87 0 134.5 -37t47.5 -105zM490 364q0 48 -58 48h-24v-101l18 1q33 2 48.5 14t15.5 38z" />
    <glyph glyph-name="acute" unicode="&#xb4;" horiz-adv-x="398" 
d="M210 530h-115l96 187h200z" />
    <glyph glyph-name="mu" unicode="&#xb5;" horiz-adv-x="592" 
d="M545 69q0 -143 -66.5 -208t-206.5 -65q-125 0 -218 51l48 141q91 -43 158 -43q43 0 68.5 17.5t25.5 67.5v21q-47 -55 -127 -55q-83 0 -142 62.5t-59 173.5q0 112 68.5 181t162.5 69q69 0 111 -25l177 22v-410zM354 334q-24 13 -55 13q-39 0 -61 -27.5t-22 -76.5t21.5 -77
t55.5 -28q37 0 61 26v170z" />
    <glyph glyph-name="paragraph" unicode="&#xb6;" horiz-adv-x="638" 
d="M323 168q-289 0 -289 233q0 105 77 164.5t226 59.5h235v-699h-168v242h-81z" />
    <glyph glyph-name="periodcentered" unicode="&#xb7;" horiz-adv-x="301" 
d="M264 271q0 -49 -30 -77t-80 -28t-80 28t-30 77t30 77t80 28t80 -28t30 -77z" />
    <glyph glyph-name="cedilla" unicode="&#xb8;" 
d="M197 -42q53 -4 91 -32t38 -76q0 -117 -217 -144l-8 80q67 4 94.5 16t27.5 36q0 29 -27.5 39t-86.5 8l-11 56l110 98h84q-11 -10 -35 -30z" />
    <glyph glyph-name="ordmasculine" unicode="&#xba;" horiz-adv-x="468" 
d="M444 441q0 -91 -60.5 -145t-151.5 -54q-90 0 -149 54t-59 145q0 93 60 146t152 53q91 0 149.5 -53t58.5 -146zM290 440q0 94 -57 96q-55 0 -55 -94t57 -94q55 0 55 92z" />
    <glyph glyph-name="guillemotright" unicode="&#xbb;" horiz-adv-x="623" 
d="M358 15l-36 115l112 102v2l-112 103l36 115l250 -151v-134zM58 5l-34 117l112 110v2l-112 111l34 117l254 -159v-140z" />
    <glyph glyph-name="onequarter" unicode="&#xbc;" horiz-adv-x="756" 
d="M268 0h-191v313l-80 6l4 122l75 22l1 20q4 105 51.5 154t146.5 49q85 0 144 -24l-34 -154q-39 17 -80 17q-47 0 -47 -52v-14l175 4l1 30q4 105 51.5 154t146.5 49q85 0 144 -24l-34 -154q-39 17 -80 17q-47 0 -47 -52v-24h122l-3 -144h-109v-315h-191v314l-166 1v-315z
" />
    <glyph glyph-name="onehalf" unicode="&#xbd;" horiz-adv-x="1005" 
d="M268 0h-191v313l-80 6l4 122l75 22l1 20q4 105 51.5 154t146.5 49q85 0 144 -24l-34 -154q-39 17 -80 17q-47 0 -47 -52v-14l175 4l1 30q4 105 51.5 154t146.5 49q85 0 144 -24l-34 -154q-39 17 -80 17q-47 0 -47 -52v-24h156l191 19v-478h-191v315h-151v-315h-186v313
l-166 2v-315z" />
    <glyph glyph-name="threequarters" unicode="&#xbe;" horiz-adv-x="1039" 
d="M801 0v655l191 22v-677h-191zM268 0h-191v313l-80 6l4 122l75 22l1 20q4 105 51.5 154t146.5 49q85 0 144 -24l-34 -154q-39 17 -80 17q-47 0 -47 -52v-14l175 4l1 30q4 105 51.5 154t146.5 49q85 0 144 -24l-34 -154q-39 17 -80 17q-47 0 -47 -52v-24h122l-3 -144h-109
v-315h-191v313l-166 2v-315z" />
    <glyph glyph-name="questiondown" unicode="&#xbf;" horiz-adv-x="450" 
d="M30 190q0 107 122 143q59 17 69 23q0 1 -13 11t-27 20.5t-15 11.5q35 5 59 9q62 8 69 8q42 -15 64 -47t22 -65q0 -70 -100 -93q-25 -6 -35 -8.5t-20.5 -7t-13.5 -9t-3 -11.5q0 -35 82 -35q63 0 120 24l-9 -156q-55 -23 -127 -23q-109 0 -176.5 57.5t-67.5 147.5zM144 545
q0 47 29 71t81 24t81 -24t29 -71t-29 -71t-81 -24t-81 24t-29 71z" />
    <glyph glyph-name="Agrave" unicode="&#xc0;" horiz-adv-x="679" 
d="M678 0h-195l-39 117h-212l-37 -117h-194l215 625h251zM340 484l-70 -219h136zM290 657l-181 187h200l96 -187h-115z" />
    <glyph glyph-name="Aacute" unicode="&#xc1;" horiz-adv-x="679" 
d="M678 0h-195l-39 117h-212l-37 -117h-194l215 625h251zM340 484l-70 -219h136zM392 657h-115l96 187h200z" />
    <glyph glyph-name="Acircumflex" unicode="&#xc2;" horiz-adv-x="679" 
d="M678 0h-195l-39 117h-212l-37 -117h-194l215 625h251zM340 484l-70 -219h136zM415 657l-75 98h-3l-71 -98h-131l121 187h166l121 -187h-128z" />
    <glyph glyph-name="Atilde" unicode="&#xc3;" horiz-adv-x="679" 
d="M678 0h-195l-39 117h-212l-37 -117h-194l215 625h251zM340 484l-70 -219h136zM541 827q-9 -96 -38 -131t-78 -35q-36 0 -88.5 25.5t-62.5 25.5q-13 0 -19 -9t-9 -36h-110q9 95 38.5 130.5t77.5 35.5q36 0 88.5 -25.5t62.5 -25.5q13 0 19 9t9 36h110z" />
    <glyph glyph-name="Adieresis" unicode="&#xc4;" horiz-adv-x="679" 
d="M678 0h-195l-39 117h-212l-37 -117h-194l215 625h251zM340 484l-70 -219h136zM547 746q0 -85 -89 -85q-41 0 -65 21t-24 64t24 64t65 21q89 0 89 -85zM300 746q0 -43 -24 -64t-65 -21q-90 0 -90 85t90 85q41 0 65 -21t24 -64z" />
    <glyph glyph-name="Aring" unicode="&#xc5;" horiz-adv-x="679" 
d="M340 484l-70 -219h136zM216 622q-26 32 -26 73q0 53 41 88t109 35t109 -34t41 -89q0 -40 -25 -71l213 -624h-195l-39 117h-212l-37 -117h-194zM427 696q0 32 -23 51t-64 19q-39 0 -62.5 -19t-23.5 -51t23.5 -51.5t62.5 -19.5q41 0 64 19t23 52z" />
    <glyph glyph-name="AE" unicode="&#xc6;" horiz-adv-x="931" 
d="M407 270v240l-96 -240h96zM202 0h-209l277 625h625v-153h-296v-82h244v-153h-244v-84h296v-153h-488v117h-158z" />
    <glyph glyph-name="Ccedilla" unicode="&#xc7;" horiz-adv-x="619" 
d="M304 -10q-129 18 -199 98.5t-70 221.5q0 153 93 241.5t257 88.5q113 0 211 -44l-59 -163q-72 42 -150 42q-72 0 -113 -43t-41 -118q0 -77 39.5 -120.5t114.5 -43.5q81 0 159 46l43 -169q-86 -42 -209 -42q-6 -6 -17.5 -15.5t-14.5 -11.5q53 -4 91 -32t38 -76
q0 -117 -217 -144l-8 80q67 4 94.5 16t27.5 36q0 29 -27.5 39t-86.5 8l-11 56z" />
    <glyph glyph-name="Egrave" unicode="&#xc8;" horiz-adv-x="587" 
d="M58 0v625h488v-153h-296v-82h234v-153h-234v-84h296v-153h-488zM253 657l-181 187h200l96 -187h-115z" />
    <glyph glyph-name="Eacute" unicode="&#xc9;" horiz-adv-x="587" 
d="M58 0v625h488v-153h-296v-82h234v-153h-234v-84h296v-153h-488zM360 657h-115l96 187h200z" />
    <glyph glyph-name="Ecircumflex" unicode="&#xca;" horiz-adv-x="587" 
d="M58 0v625h488v-153h-296v-82h234v-153h-234v-84h296v-153h-488zM382 657l-75 98h-3l-71 -98h-131l121 187h166l121 -187h-128z" />
    <glyph glyph-name="Edieresis" unicode="&#xcb;" horiz-adv-x="587" 
d="M58 0v625h488v-153h-296v-82h234v-153h-234v-84h296v-153h-488zM519 746q0 -85 -89 -85q-41 0 -65 21t-24 64t24 64t65 21q89 0 89 -85zM272 746q0 -43 -24 -64t-65 -21q-90 0 -90 85t90 85q41 0 65 -21t24 -64z" />
    <glyph glyph-name="Igrave" unicode="&#xcc;" horiz-adv-x="315" 
d="M59 0v625h197v-625h-197zM103 657l-181 187h200l96 -187h-115z" />
    <glyph glyph-name="Iacute" unicode="&#xcd;" horiz-adv-x="315" 
d="M59 0v625h197v-625h-197zM202 657h-115l96 187h200z" />
    <glyph glyph-name="Icircumflex" unicode="&#xce;" horiz-adv-x="315" 
d="M59 0v625h197v-625h-197zM233 657l-75 98h-3l-71 -98h-131l121 187h166l121 -187h-128z" />
    <glyph glyph-name="Idieresis" unicode="&#xcf;" horiz-adv-x="315" 
d="M59 0v625h197v-625h-197zM369 746q0 -85 -89 -85q-41 0 -65 21t-24 64t24 64t65 21q89 0 89 -85zM122 746q0 -43 -24 -64t-65 -21q-90 0 -90 85t90 85q41 0 65 -21t24 -64z" />
    <glyph glyph-name="Eth" unicode="&#xd0;" horiz-adv-x="745" 
d="M405 389v-147h-110v-91h39q78 0 127.5 40.5t49.5 119.5q0 163 -187 163h-29v-85h110zM15 242v147h83v236h259q168 0 260 -83t92 -225q0 -146 -96 -231.5t-270 -85.5h-245v242h-83z" />
    <glyph glyph-name="Ntilde" unicode="&#xd1;" horiz-adv-x="733" 
d="M492 625h183v-631h-209l-225 360v-354h-183v625h212l222 -355v355zM568 827q-9 -96 -38 -131t-78 -35q-36 0 -88.5 25.5t-62.5 25.5q-13 0 -19 -9t-9 -36h-110q9 95 38.5 130.5t77.5 35.5q36 0 88.5 -25.5t62.5 -25.5q13 0 19 9t9 36h110z" />
    <glyph glyph-name="Ograve" unicode="&#xd2;" horiz-adv-x="739" 
d="M704 315q0 -150 -95.5 -240t-240.5 -90q-148 0 -240.5 84t-92.5 242q0 150 95.5 239.5t240.5 89.5q148 0 240.5 -83.5t92.5 -241.5zM506 311q0 79 -35.5 126.5t-102.5 47.5t-101 -46t-34 -124q0 -80 35.5 -127.5t102.5 -47.5q66 0 100.5 46.5t34.5 124.5zM316 667
l-181 187h200l96 -187h-115z" />
    <glyph glyph-name="Oacute" unicode="&#xd3;" horiz-adv-x="739" 
d="M704 315q0 -150 -95.5 -240t-240.5 -90q-148 0 -240.5 84t-92.5 242q0 150 95.5 239.5t240.5 89.5q148 0 240.5 -83.5t92.5 -241.5zM506 311q0 79 -35.5 126.5t-102.5 47.5t-101 -46t-34 -124q0 -80 35.5 -127.5t102.5 -47.5q66 0 100.5 46.5t34.5 124.5zM421 667h-115
l96 187h200z" />
    <glyph glyph-name="Ocircumflex" unicode="&#xd4;" horiz-adv-x="739" 
d="M704 315q0 -150 -95.5 -240t-240.5 -90q-148 0 -240.5 84t-92.5 242q0 150 95.5 239.5t240.5 89.5q148 0 240.5 -83.5t92.5 -241.5zM506 311q0 79 -35.5 126.5t-102.5 47.5t-101 -46t-34 -124q0 -80 35.5 -127.5t102.5 -47.5q66 0 100.5 46.5t34.5 124.5zM445 657l-75 98
h-3l-71 -98h-131l121 187h166l121 -187h-128z" />
    <glyph glyph-name="Otilde" unicode="&#xd5;" horiz-adv-x="739" 
d="M704 315q0 -150 -95.5 -240t-240.5 -90q-148 0 -240.5 84t-92.5 242q0 150 95.5 239.5t240.5 89.5q148 0 240.5 -83.5t92.5 -241.5zM506 311q0 79 -35.5 126.5t-102.5 47.5t-101 -46t-34 -124q0 -80 35.5 -127.5t102.5 -47.5q66 0 100.5 46.5t34.5 124.5zM571 827
q-9 -96 -38 -131t-78 -35q-36 0 -88.5 25.5t-62.5 25.5q-13 0 -19 -9t-9 -36h-110q9 95 38.5 130.5t77.5 35.5q36 0 88.5 -25.5t62.5 -25.5q13 0 19 9t9 36h110z" />
    <glyph glyph-name="Odieresis" unicode="&#xd6;" horiz-adv-x="739" 
d="M704 315q0 -150 -95.5 -240t-240.5 -90q-148 0 -240.5 84t-92.5 242q0 150 95.5 239.5t240.5 89.5q148 0 240.5 -83.5t92.5 -241.5zM506 311q0 79 -35.5 126.5t-102.5 47.5t-101 -46t-34 -124q0 -80 35.5 -127.5t102.5 -47.5q66 0 100.5 46.5t34.5 124.5zM581 746
q0 -85 -89 -85q-41 0 -65 21t-24 64t24 64t65 21q89 0 89 -85zM334 746q0 -43 -24 -64t-65 -21q-90 0 -90 85t90 85q41 0 65 -21t24 -64z" />
    <glyph glyph-name="multiply" unicode="&#xd7;" horiz-adv-x="546" 
d="M416 0l-143 144l-143 -144l-98 98l145 142l-146 144l98 98l144 -146l144 146l98 -98l-146 -143l145 -143z" />
    <glyph glyph-name="Oslash" unicode="&#xd8;" horiz-adv-x="739" 
d="M704 315q0 -150 -95.5 -240t-240.5 -90q-81 0 -144 25l-45 -77h-76l63 107q-131 85 -131 271q0 150 95.5 239.5t240.5 89.5q76 0 135 -22q1 0 22 37q4 6 11 18.5t11 18.5h76l-60 -102q138 -84 138 -275zM425 474q-28 11 -57 11q-67 0 -101 -46t-34 -124q0 -74 31 -120z
M307 155q27 -15 64 -15q66 0 100.5 46.5t34.5 124.5q0 80 -36 127z" />
    <glyph glyph-name="Ugrave" unicode="&#xd9;" horiz-adv-x="686" 
d="M634 262q0 -139 -78.5 -208t-212.5 -69q-133 0 -212 63t-79 198v379h197v-355q0 -63 23 -93t74 -30q49 0 70.5 26.5t21.5 91.5v360h196v-363zM298 657l-181 187h200l96 -187h-115z" />
    <glyph glyph-name="Uacute" unicode="&#xda;" horiz-adv-x="686" 
d="M634 262q0 -139 -78.5 -208t-212.5 -69q-133 0 -212 63t-79 198v379h197v-355q0 -63 23 -93t74 -30q49 0 70.5 26.5t21.5 91.5v360h196v-363zM387 657h-115l96 187h200z" />
    <glyph glyph-name="Ucircumflex" unicode="&#xdb;" horiz-adv-x="686" 
d="M634 262q0 -139 -78.5 -208t-212.5 -69q-133 0 -212 63t-79 198v379h197v-355q0 -63 23 -93t74 -30q49 0 70.5 26.5t21.5 91.5v360h196v-363zM419 657l-75 98h-3l-71 -98h-131l121 187h166l121 -187h-128z" />
    <glyph glyph-name="Udieresis" unicode="&#xdc;" horiz-adv-x="686" 
d="M634 262q0 -139 -78.5 -208t-212.5 -69q-133 0 -212 63t-79 198v379h197v-355q0 -63 23 -93t74 -30q49 0 70.5 26.5t21.5 91.5v360h196v-363zM555 746q0 -85 -89 -85q-41 0 -65 21t-24 64t24 64t65 21q89 0 89 -85zM308 746q0 -43 -24 -64t-65 -21q-90 0 -90 85t90 85
q41 0 65 -21t24 -64z" />
    <glyph glyph-name="Yacute" unicode="&#xdd;" horiz-adv-x="648" 
d="M421 231v-231h-193v232l-218 393h206l110 -224l106 224h206zM372 657h-115l96 187h200z" />
    <glyph glyph-name="Thorn" unicode="&#xde;" horiz-adv-x="624" 
d="M596 321q0 -114 -74 -173.5t-217 -59.5h-50v-88h-197v625h197v-80h63q131 0 204.5 -61t73.5 -163zM401 317q0 78 -98 78h-54v-163l48 1q104 2 104 84z" />
    <glyph glyph-name="germandbls" unicode="&#xdf;" horiz-adv-x="794" 
d="M385 518q-39 17 -80 17q-42 0 -42 -54v-481h-186v313l-80 6l4 122l75 22l1 30q4 105 51.5 154t146.5 49q85 0 144 -24zM770 142q0 -67 -59.5 -112t-170.5 -45q-55 0 -117 11t-100 30l35 129q98 -45 185 -45q48 0 48 24q0 12 -12.5 19t-51.5 15q-102 18 -149.5 55
t-47.5 106t58.5 111.5t166.5 42.5q51 0 113 -12.5t97 -30.5l-36 -128q-95 46 -174 46q-45 0 -45 -23q0 -11 13.5 -17t53.5 -15q104 -21 148.5 -56t44.5 -105z" />
    <glyph glyph-name="agrave" unicode="&#xe0;" horiz-adv-x="542" 
d="M207 530l-181 187h200l96 -187h-115zM304 196q-56 -5 -78 -16.5t-22 -37.5q0 -18 13 -28.5t32 -10.5q35 0 55 22v71zM306 60q-21 -25 -34.5 -37.5t-41.5 -25t-62 -12.5q-58 0 -98.5 37.5t-40.5 90.5q0 161 275 165v7q0 54 -71 54q-63 0 -163 -45l-40 133q114 56 236 56
q128 0 179.5 -55t49.5 -161l-1 -109q0 -21 6 -26.5t28 -8.5l-19 -131q-157 -23 -200 68h-3z" />
    <glyph glyph-name="aacute" unicode="&#xe1;" horiz-adv-x="542" 
d="M304 196q-56 -5 -78 -16.5t-22 -37.5q0 -18 13 -28.5t32 -10.5q35 0 55 22v71zM306 60q-21 -25 -34.5 -37.5t-41.5 -25t-62 -12.5q-58 0 -98.5 37.5t-40.5 90.5q0 161 275 165v7q0 54 -71 54q-63 0 -163 -45l-40 133q114 56 236 56q128 0 179.5 -55t49.5 -161l-1 -109
q0 -21 6 -26.5t28 -8.5l-19 -131q-157 -23 -200 68h-3zM296 530h-115l96 187h200z" />
    <glyph glyph-name="acircumflex" unicode="&#xe2;" horiz-adv-x="542" 
d="M304 196q-56 -5 -78 -16.5t-22 -37.5q0 -18 13 -28.5t32 -10.5q35 0 55 22v71zM306 60q-21 -25 -34.5 -37.5t-41.5 -25t-62 -12.5q-58 0 -98.5 37.5t-40.5 90.5q0 161 275 165v7q0 54 -71 54q-63 0 -163 -45l-40 133q114 56 236 56q128 0 179.5 -55t49.5 -161l-1 -109
q0 -21 6 -26.5t28 -8.5l-19 -131q-157 -23 -200 68h-3zM333 530l-75 98h-3l-71 -98h-131l121 187h166l121 -187h-128z" />
    <glyph glyph-name="atilde" unicode="&#xe3;" horiz-adv-x="542" 
d="M304 196q-56 -5 -78 -16.5t-22 -37.5q0 -18 13 -28.5t32 -10.5q35 0 55 22v71zM306 60q-21 -25 -34.5 -37.5t-41.5 -25t-62 -12.5q-58 0 -98.5 37.5t-40.5 90.5q0 161 275 165v7q0 54 -71 54q-63 0 -163 -45l-40 133q114 56 236 56q128 0 179.5 -55t49.5 -161l-1 -109
q0 -21 6 -26.5t28 -8.5l-19 -131q-157 -23 -200 68h-3zM468 700q-9 -96 -38 -131t-78 -35q-36 0 -88.5 25.5t-62.5 25.5q-13 0 -19 -9t-9 -36h-110q9 95 38.5 130.5t77.5 35.5q36 0 88.5 -25.5t62.5 -25.5q13 0 19 9t9 36h110z" />
    <glyph glyph-name="adieresis" unicode="&#xe4;" horiz-adv-x="542" 
d="M304 196q-56 -5 -78 -16.5t-22 -37.5q0 -18 13 -28.5t32 -10.5q35 0 55 22v71zM306 60q-21 -25 -34.5 -37.5t-41.5 -25t-62 -12.5q-58 0 -98.5 37.5t-40.5 90.5q0 161 275 165v7q0 54 -71 54q-63 0 -163 -45l-40 133q114 56 236 56q128 0 179.5 -55t49.5 -161l-1 -109
q0 -21 6 -26.5t28 -8.5l-19 -131q-157 -23 -200 68h-3zM479 609q0 -85 -89 -85q-41 0 -65 21t-24 64t24 64t65 21q89 0 89 -85zM232 609q0 -43 -24 -64t-65 -21q-90 0 -90 85t90 85q41 0 65 -21t24 -64z" />
    <glyph glyph-name="aring" unicode="&#xe5;" horiz-adv-x="542" 
d="M304 196q-56 -5 -78 -16.5t-22 -37.5q0 -18 13 -28.5t32 -10.5q35 0 55 22v71zM306 60q-21 -25 -34.5 -37.5t-41.5 -25t-62 -12.5q-58 0 -98.5 37.5t-40.5 90.5q0 161 275 165v7q0 54 -71 54q-63 0 -163 -45l-40 133q114 56 236 56q128 0 179.5 -55t49.5 -161l-1 -109
q0 -21 6 -26.5t28 -8.5l-19 -131q-157 -23 -200 68h-3zM397 644q0 -52 -41 -87t-109 -35t-109 35t-41 87q0 53 41 88t109 35t109 -34t41 -89zM334 645q0 32 -23 51t-64 19q-39 0 -62.5 -19t-23.5 -51t23.5 -51.5t62.5 -19.5q41 0 64 19t23 52z" />
    <glyph glyph-name="ae" unicode="&#xe6;" horiz-adv-x="802" 
d="M343 83q-87 -98 -175 -98q-58 0 -98.5 37.5t-40.5 90.5q0 74 67 118.5t212 46.5v7q0 54 -75 54q-63 0 -163 -45l-40 133q112 55 238 55q106 0 158 -34q62 35 137 35q101 0 155.5 -57t54.5 -146q0 -57 -10 -86l-289 -7v-1q10 -69 109 -69q73 0 159 49l15 -142
q-84 -38 -194 -38q-152 0 -220 97zM596 273q1 3 1 10q0 77 -55 77q-29 0 -47 -24t-21 -63h122zM307 196q-55 -4 -79 -16t-24 -38q0 -18 13 -28t32 -10q36 0 70 31q-9 28 -12 61z" />
    <glyph glyph-name="ccedilla" unicode="&#xe7;" horiz-adv-x="500" 
d="M235 -11q-98 13 -153.5 74t-55.5 166q0 118 71.5 186t196.5 68q110 0 180 -39l-34 -137q-66 35 -121 35q-47 0 -73 -29.5t-26 -76.5q0 -53 28.5 -81t77.5 -28q58 0 118 34l27 -138q-54 -32 -157 -37q-7 -6 -18 -15.5t-15 -12.5q53 -4 91 -32t38 -76q0 -117 -217 -144
l-8 80q67 4 94.5 16t27.5 36q0 29 -27.5 39t-86.5 8l-11 56z" />
    <glyph glyph-name="egrave" unicode="&#xe8;" horiz-adv-x="536" 
d="M230 530l-181 187h200l96 -187h-115zM210 186q10 -69 109 -69q73 0 159 49l15 -142q-84 -38 -194 -38q-128 0 -201 63t-73 182q0 116 72.5 184t191.5 68q106 0 163 -55.5t57 -147.5q0 -57 -10 -86l-289 -7v-1zM332 273q1 3 1 10q0 77 -55 77q-29 0 -47 -24t-21 -63h122z
" />
    <glyph glyph-name="eacute" unicode="&#xe9;" horiz-adv-x="536" 
d="M210 186q10 -69 109 -69q73 0 159 49l15 -142q-84 -38 -194 -38q-128 0 -201 63t-73 182q0 116 72.5 184t191.5 68q106 0 163 -55.5t57 -147.5q0 -57 -10 -86l-289 -7v-1zM332 273q1 3 1 10q0 77 -55 77q-29 0 -47 -24t-21 -63h122zM322 530h-115l96 187h200z" />
    <glyph glyph-name="ecircumflex" unicode="&#xea;" horiz-adv-x="536" 
d="M210 186q10 -69 109 -69q73 0 159 49l15 -142q-84 -38 -194 -38q-128 0 -201 63t-73 182q0 116 72.5 184t191.5 68q106 0 163 -55.5t57 -147.5q0 -57 -10 -86l-289 -7v-1zM332 273q1 3 1 10q0 77 -55 77q-29 0 -47 -24t-21 -63h122zM347 530l-75 98h-3l-71 -98h-131
l121 187h166l121 -187h-128z" />
    <glyph glyph-name="edieresis" unicode="&#xeb;" horiz-adv-x="536" 
d="M210 186q10 -69 109 -69q73 0 159 49l15 -142q-84 -38 -194 -38q-128 0 -201 63t-73 182q0 116 72.5 184t191.5 68q106 0 163 -55.5t57 -147.5q0 -57 -10 -86l-289 -7v-1zM332 273q1 3 1 10q0 77 -55 77q-29 0 -47 -24t-21 -63h122zM492 609q0 -85 -89 -85q-41 0 -65 21
t-24 64t24 64t65 21q89 0 89 -85zM245 609q0 -43 -24 -64t-65 -21q-90 0 -90 85t90 85q41 0 65 -21t24 -64z" />
    <glyph glyph-name="igrave" unicode="&#xec;" horiz-adv-x="285" 
d="M51 0v465l191 13v-478h-191zM104 530l-181 187h200l96 -187h-115z" />
    <glyph glyph-name="iacute" unicode="&#xed;" horiz-adv-x="285" 
d="M51 0v465l191 13v-478h-191zM184 530h-115l96 187h200z" />
    <glyph glyph-name="icircumflex" unicode="&#xee;" horiz-adv-x="285" 
d="M51 0v465l191 13v-478h-191zM225 530l-75 98h-3l-71 -98h-131l121 187h166l121 -187h-128z" />
    <glyph glyph-name="idieresis" unicode="&#xef;" horiz-adv-x="285" 
d="M51 0v465l191 13v-478h-191zM361 609q0 -85 -89 -85q-41 0 -65 21t-24 64t24 64t65 21q89 0 89 -85zM114 609q0 -43 -24 -64t-65 -21q-90 0 -90 85t90 85q41 0 65 -21t24 -64z" />
    <glyph glyph-name="eth" unicode="&#xf0;" horiz-adv-x="596" 
d="M566 276q0 -125 -77 -208t-204 -83q-112 0 -183.5 66.5t-71.5 181.5q0 109 63 169t141 60q50 0 92 -30l2 1q-55 67 -75 87l-9 -2q-8 -2 -25 -6.5t-31 -8.5q-50 -13 -66 -17l-24 95l75 19q-15 11 -39 29.5t-33 25.5l210 38q20 -13 52 -42l132 35l24 -95l-78 -19
q125 -145 125 -296zM366 232q0 39 -11 83q-26 21 -58 21q-36 0 -56.5 -28.5t-20.5 -79.5q0 -48 21.5 -72.5t53.5 -24.5q31 0 51 27t20 74z" />
    <glyph glyph-name="ntilde" unicode="&#xf1;" horiz-adv-x="590" 
d="M354 0v268q0 58 -51 58q-35 0 -65 -28v-298h-191v456l191 22v-80q67 85 159 85q70 0 109 -43t39 -118v-322h-191zM497 700q-9 -96 -38 -131t-78 -35q-36 0 -88.5 25.5t-62.5 25.5q-13 0 -19 -9t-9 -36h-110q9 95 38.5 130.5t77.5 35.5q36 0 88.5 -25.5t62.5 -25.5
q13 0 19 9t9 36h110z" />
    <glyph glyph-name="ograve" unicode="&#xf2;" horiz-adv-x="575" 
d="M253 530l-181 187h200l96 -187h-115zM550 236q0 -116 -76.5 -183.5t-189.5 -67.5q-114 0 -186.5 64t-72.5 183q0 118 76 184.5t190 66.5q113 0 186 -65.5t73 -181.5zM361 235q0 109 -74 109q-73 0 -73 -111q0 -108 74 -108q73 0 73 110z" />
    <glyph glyph-name="oacute" unicode="&#xf3;" horiz-adv-x="575" 
d="M550 236q0 -116 -76.5 -183.5t-189.5 -67.5q-114 0 -186.5 64t-72.5 183q0 118 76 184.5t190 66.5q113 0 186 -65.5t73 -181.5zM361 235q0 109 -74 109q-73 0 -73 -111q0 -108 74 -108q73 0 73 110zM330 530h-115l96 187h200z" />
    <glyph glyph-name="ocircumflex" unicode="&#xf4;" horiz-adv-x="575" 
d="M550 236q0 -116 -76.5 -183.5t-189.5 -67.5q-114 0 -186.5 64t-72.5 183q0 118 76 184.5t190 66.5q113 0 186 -65.5t73 -181.5zM361 235q0 109 -74 109q-73 0 -73 -111q0 -108 74 -108q73 0 73 110zM368 530l-75 98h-3l-71 -98h-131l121 187h166l121 -187h-128z" />
    <glyph glyph-name="otilde" unicode="&#xf5;" horiz-adv-x="575" 
d="M550 236q0 -116 -76.5 -183.5t-189.5 -67.5q-114 0 -186.5 64t-72.5 183q0 118 76 184.5t190 66.5q113 0 186 -65.5t73 -181.5zM361 235q0 109 -74 109q-73 0 -73 -111q0 -108 74 -108q73 0 73 110zM494 700q-9 -96 -38 -131t-78 -35q-36 0 -88.5 25.5t-62.5 25.5
q-13 0 -19 -9t-9 -36h-110q9 95 38.5 130.5t77.5 35.5q36 0 88.5 -25.5t62.5 -25.5q13 0 19 9t9 36h110z" />
    <glyph glyph-name="odieresis" unicode="&#xf6;" horiz-adv-x="575" 
d="M550 236q0 -116 -76.5 -183.5t-189.5 -67.5q-114 0 -186.5 64t-72.5 183q0 118 76 184.5t190 66.5q113 0 186 -65.5t73 -181.5zM361 235q0 109 -74 109q-73 0 -73 -111q0 -108 74 -108q73 0 73 110zM504 609q0 -85 -89 -85q-41 0 -65 21t-24 64t24 64t65 21q89 0 89 -85z
M257 609q0 -43 -24 -64t-65 -21q-90 0 -90 85t90 85q41 0 65 -21t24 -64z" />
    <glyph glyph-name="divide" unicode="&#xf7;" horiz-adv-x="547" 
d="M31 172l3 139h480l3 -139h-486zM362 40q0 -39 -24 -61.5t-64 -22.5t-64 22.5t-24 61.5t24 61.5t64 22.5t64 -22.5t24 -61.5zM362 443q0 -39 -24 -61.5t-64 -22.5t-64 22.5t-24 61.5t24 61.5t64 22.5t64 -22.5t24 -61.5z" />
    <glyph glyph-name="oslash" unicode="&#xf8;" horiz-adv-x="575" 
d="M555 234q0 -115 -75 -182t-190 -67q-48 0 -96 14l-39 -66h-76l55 94q-104 70 -104 207q0 115 75 182t190 67q58 0 100 -16l35 59h76l-52 -88q101 -66 101 -204zM331 352q-20 15 -42 15q-37 0 -57 -33.5t-20 -94.5q0 -39 11 -73zM374 233q0 36 -8 68l-106 -185
q21 -10 37 -10q37 0 57 33.5t20 93.5z" />
    <glyph glyph-name="ugrave" unicode="&#xf9;" horiz-adv-x="579" 
d="M235 468v-268q0 -58 51 -58q30 0 55 20v306h191v-456l-191 -22v70q-62 -75 -149 -75q-70 0 -109 43t-39 118v322h191zM233 530l-181 187h200l96 -187h-115z" />
    <glyph glyph-name="uacute" unicode="&#xfa;" horiz-adv-x="579" 
d="M235 468v-268q0 -58 51 -58q30 0 55 20v306h191v-456l-191 -22v70q-62 -75 -149 -75q-70 0 -109 43t-39 118v322h191zM344 530h-115l96 187h200z" />
    <glyph glyph-name="ucircumflex" unicode="&#xfb;" horiz-adv-x="579" 
d="M235 468v-268q0 -58 51 -58q30 0 55 20v306h191v-456l-191 -22v70q-62 -75 -149 -75q-70 0 -109 43t-39 118v322h191zM365 530l-75 98h-3l-71 -98h-131l121 187h166l121 -187h-128z" />
    <glyph glyph-name="udieresis" unicode="&#xfc;" horiz-adv-x="579" 
d="M235 468v-268q0 -58 51 -58q30 0 55 20v306h191v-456l-191 -22v70q-62 -75 -149 -75q-70 0 -109 43t-39 118v322h191zM503 609q0 -85 -89 -85q-41 0 -65 21t-24 64t24 64t65 21q89 0 89 -85zM256 609q0 -43 -24 -64t-65 -21q-90 0 -90 85t90 85q41 0 65 -21t24 -64z" />
    <glyph glyph-name="yacute" unicode="&#xfd;" horiz-adv-x="542" 
d="M390 36l-19 -51q-37 -107 -88.5 -148t-138.5 -41t-159 32l57 139q49 -21 72 -21q24 0 35.5 7.5t19.5 28.5l5 17l-184 469h205l81 -279l70 279h204zM309 530h-115l96 187h200z" />
    <glyph glyph-name="thorn" unicode="&#xfe;" horiz-adv-x="596" 
d="M238 -193h-191v848l191 22v-259q61 65 131 65q84 0 140.5 -65t56.5 -176q0 -117 -69 -186t-164 -69q-50 0 -95 16v-196zM238 135q24 -13 55 -13q39 0 61 29t22 80q0 105 -77 105q-37 0 -61 -26v-175z" />
    <glyph glyph-name="ydieresis" unicode="&#xff;" horiz-adv-x="542" 
d="M390 36l-19 -51q-37 -107 -88.5 -148t-138.5 -41t-159 32l57 139q49 -21 72 -21q24 0 35.5 7.5t19.5 28.5l5 17l-184 469h205l81 -279l70 279h204zM480 619q0 -85 -89 -85q-41 0 -65 21t-24 64t24 64t65 21q89 0 89 -85zM233 619q0 -43 -24 -64t-65 -21q-90 0 -90 85
t90 85q41 0 65 -21t24 -64z" />
    <glyph glyph-name="dotlessi" unicode="&#x131;" horiz-adv-x="285" 
d="M51 0v465l191 13v-478h-191z" />
    <glyph glyph-name="Lslash" unicode="&#x141;" horiz-adv-x="573" 
d="M295 161h241v-161h-438v209l-82 -22v146l82 22v270h197v-217l134 36v-146l-134 -36v-101z" />
    <glyph glyph-name="lslash" unicode="&#x142;" horiz-adv-x="365" 
d="M278 0h-191v209l-62 -17v146l62 17v300l191 22v-271l62 17v-146l-62 -17v-260z" />
    <glyph glyph-name="OE" unicode="&#x152;" horiz-adv-x="978" 
d="M942 472h-291v-82h239v-153h-239v-84h291v-153h-555q-168 0 -260 83t-92 225q0 147 91.5 232t264.5 85h551v-153zM233 314q0 -86 40 -124.5t127 -38.5h54v323h-64q-157 0 -157 -160z" />
    <glyph glyph-name="oe" unicode="&#x153;" horiz-adv-x="840" 
d="M634 273q1 3 1 10q0 77 -55 77q-29 0 -47 -24t-21 -63h122zM214 233q0 -108 74 -108q73 0 73 110q0 109 -74 109q-73 0 -73 -111zM439 27q-66 -42 -155 -42q-114 0 -186.5 64t-72.5 183q0 118 76 184.5t190 66.5q88 0 150 -39q67 39 152 39q105 0 161.5 -55t56.5 -148
q0 -57 -10 -86l-289 -7v-1q10 -69 109 -69q73 0 159 49l15 -142q-84 -38 -194 -38q-91 0 -162 41z" />
    <glyph glyph-name="Scaron" unicode="&#x160;" horiz-adv-x="592" 
d="M286 144q75 0 75 36q0 7 -2.5 12t-8.5 9.5t-11.5 8t-18 7.5t-21 6.5t-26.5 8t-29 8.5q-34 10 -58 18.5t-54.5 25.5t-49.5 36.5t-32.5 49.5t-13.5 67q0 94 65 148t191 54q146 0 252 -55l-31 -161q-116 57 -220 57q-60 0 -60 -33q0 -10 9 -18.5t30.5 -16.5t36 -12.5
t46.5 -12.5q43 -12 74.5 -25.5t63 -35t48.5 -54.5t17 -76q0 -96 -71 -153.5t-204 -57.5q-154 0 -257 56l30 161q120 -58 230 -58zM379 667h-166l-121 187h128l75 -98h3l71 98h131z" />
    <glyph glyph-name="scaron" unicode="&#x161;" horiz-adv-x="491" 
d="M467 142q0 -67 -59.5 -112t-170.5 -45q-55 0 -117 11t-100 30l35 129q98 -45 185 -45q48 0 48 24q0 12 -12.5 19t-51.5 15q-102 18 -149.5 55t-47.5 106t58.5 111.5t166.5 42.5q51 0 113 -12.5t97 -30.5l-36 -128q-95 46 -174 46q-45 0 -45 -23q0 -11 13.5 -17t53.5 -15
q104 -21 148.5 -56t44.5 -105zM328 530h-166l-121 187h128l75 -98h3l71 98h131z" />
    <glyph glyph-name="Ydieresis" unicode="&#x178;" horiz-adv-x="648" 
d="M421 231v-231h-193v232l-218 393h206l110 -224l106 224h206zM536 746q0 -85 -89 -85q-41 0 -65 21t-24 64t24 64t65 21q89 0 89 -85zM289 746q0 -43 -24 -64t-65 -21q-90 0 -90 85t90 85q41 0 65 -21t24 -64z" />
    <glyph glyph-name="Zcaron" unicode="&#x17d;" horiz-adv-x="611" 
d="M35 0v126l291 338h-285v161h533v-127l-289 -336h288v-162h-538zM393 657h-166l-121 187h128l75 -98h3l71 98h131z" />
    <glyph glyph-name="zcaron" unicode="&#x17e;" horiz-adv-x="484" 
d="M17 0v103l192 212h-183v153h439v-103l-192 -212h192v-153h-448zM323 530h-166l-121 187h128l75 -98h3l71 98h131z" />
    <glyph glyph-name="florin" unicode="&#x192;" horiz-adv-x="502" 
d="M126 257l-118 6l29 122l107 22l7 50q25 183 198 183q92 0 155 -33l-54 -136q-37 21 -71 21q-23 0 -37 -13t-17 -34l-6 -43h138l-26 -144h-123l-4 -26q-18 -117 -74 -172.5t-179 -77.5l-44 137q52 12 77.5 32t32.5 57z" />
    <glyph glyph-name="circumflex" unicode="&#x2c6;" 
d="M276 530l-75 98h-3l-71 -98h-131l121 187h166l121 -187h-128z" />
    <glyph glyph-name="caron" unicode="&#x2c7;" 
d="M283 530h-166l-121 187h128l75 -98h3l71 98h131z" />
    <glyph glyph-name="breve" unicode="&#x2d8;" 
d="M394 712q-8 -101 -63.5 -146.5t-130.5 -45.5q-72 0 -129 46t-65 146l107 -2q17 -89 87 -89t87 89z" />
    <glyph glyph-name="dotaccent" unicode="&#x2d9;" 
d="M298 608q0 -44 -26.5 -72.5t-70.5 -28.5t-71 28.5t-27 72.5q0 40 27.5 70t70.5 30t70 -29.5t27 -70.5z" />
    <glyph glyph-name="ring" unicode="&#x2da;" 
d="M350 644q0 -52 -41 -87t-109 -35t-109 35t-41 87q0 53 41 88t109 35t109 -34t41 -89zM287 645q0 32 -23 51t-64 19q-39 0 -62.5 -19t-23.5 -51t23.5 -51.5t62.5 -19.5q41 0 64 19t23 52z" />
    <glyph glyph-name="ogonek" unicode="&#x2db;" 
d="M346 -219q-71 -67 -157 -67q-58 0 -97.5 33.5t-39.5 89.5q0 63 56.5 119t140.5 76h103q-94 -32 -144 -77t-50 -93q0 -25 15.5 -40t44.5 -15q51 0 119 39z" />
    <glyph glyph-name="tilde" unicode="&#x2dc;" horiz-adv-x="398" 
d="M401 700q-9 -96 -38 -131t-78 -35q-36 0 -88.5 25.5t-62.5 25.5q-13 0 -19 -9t-9 -36h-110q9 95 38.5 130.5t77.5 35.5q36 0 88.5 -25.5t62.5 -25.5q13 0 19 9t9 36h110z" />
    <glyph glyph-name="hungarumlaut" unicode="&#x2dd;" horiz-adv-x="398" 
d="M361 530h-114l148 187h171zM147 530h-120l129 187h172z" />
    <glyph glyph-name="endash" unicode="&#x2013;" horiz-adv-x="559" 
d="M23 169l3 147h509l3 -147h-515z" />
    <glyph glyph-name="emdash" unicode="&#x2014;" horiz-adv-x="1029" 
d="M23 169l3 147h979l3 -147h-985z" />
    <glyph glyph-name="quoteleft" unicode="&#x2018;" horiz-adv-x="298" 
d="M283 405q-6 -49 -42 -78t-86 -29q-61 0 -99 43t-38 103q0 121 179 208l86 -73q-71 -46 -87 -65q-12 -15 -12 -29q0 -22 22 -40.5t77 -39.5z" />
    <glyph glyph-name="quoteright" unicode="&#x2019;" horiz-adv-x="298" 
d="M15 562q6 49 42 78t86 29q61 0 99 -43t38 -103q0 -121 -179 -208l-86 73q71 46 87 65q12 15 12 29q0 22 -22 40.5t-77 39.5z" />
    <glyph glyph-name="quotesinglbase" unicode="&#x201a;" horiz-adv-x="298" 
d="M15 87q6 49 42 78t86 29q61 0 99 -43t38 -103q0 -121 -179 -208l-86 73q71 46 87 65q12 15 12 29q0 22 -22 40.5t-77 39.5z" />
    <glyph glyph-name="quotedblleft" unicode="&#x201c;" horiz-adv-x="594" 
d="M579 405q-6 -49 -42 -78t-86 -29q-61 0 -99 43t-38 103q0 121 179 208l86 -73q-71 -46 -87 -65q-12 -16 -12 -29q0 -22 22 -40.5t77 -39.5zM283 405q-6 -49 -42 -78t-86 -29q-61 0 -99 43t-38 103q0 121 179 208l86 -73q-71 -46 -87 -65q-12 -15 -12 -29q0 -22 22 -40.5
t77 -39.5z" />
    <glyph glyph-name="quotedblright" unicode="&#x201d;" horiz-adv-x="594" 
d="M311 562q6 49 42 78t86 29q61 0 99 -43t38 -103q0 -121 -179 -208l-86 73q71 46 87 65q12 16 12 29q0 22 -22 40.5t-77 39.5zM15 562q6 49 42 78t86 29q61 0 99 -43t38 -103q0 -121 -179 -208l-86 73q71 46 87 65q12 15 12 29q0 22 -22 40.5t-77 39.5z" />
    <glyph glyph-name="quotedblbase" unicode="&#x201e;" horiz-adv-x="594" 
d="M311 87q6 49 42 78t86 29q61 0 99 -43t38 -103q0 -121 -179 -208l-86 73q71 46 87 65q12 16 12 29q0 22 -22 40.5t-77 39.5zM15 87q6 49 42 78t86 29q61 0 99 -43t38 -103q0 -121 -179 -208l-86 73q71 46 87 65q12 15 12 29q0 22 -22 40.5t-77 39.5z" />
    <glyph glyph-name="dagger" unicode="&#x2020;" horiz-adv-x="558" 
d="M29 303l-3 147h174v175h159v-175h175l-3 -147h-172v-429h-159v429h-171z" />
    <glyph glyph-name="daggerdbl" unicode="&#x2021;" horiz-adv-x="558" 
d="M29 313l-3 147h174v165h159v-165h175l-3 -147h-175v-127h175l3 -147h-175v-165h-159v165h-174l3 147h174v127h-174z" />
    <glyph glyph-name="bullet" unicode="&#x2022;" horiz-adv-x="433" 
d="M409 232q0 -21 -20 -71t-36 -66q-15 -15 -65 -35.5t-72 -20.5q-21 0 -71 21t-64 35q-15 17 -36 66.5t-21 70.5t21 71t36 65t65 35.5t71 20.5t72 -20.5t64 -35.5q15 -13 35.5 -64t20.5 -72z" />
    <glyph glyph-name="ellipsis" unicode="&#x2026;" horiz-adv-x="903" 
d="M859 85q0 -46 -30 -73t-74 -27t-74 27t-30 73t30 73t74 27t74 -27t30 -73zM558 85q0 -46 -30 -73t-74 -27t-74 27t-30 73t30 73t74 27t74 -27t30 -73zM257 85q0 -46 -30 -73t-74 -27t-74 27t-30 73t30 73t74 27t74 -27t30 -73z" />
    <glyph glyph-name="perthousand" unicode="&#x2030;" horiz-adv-x="1289" 
d="M381 471q0 -85 -48 -132t-134 -47t-132.5 47t-46.5 132q0 84 48 131t133 47q86 0 133 -47t47 -131zM248 -15h-143l528 654h143zM860 154q0 -85 -48 -132t-134 -47t-132.5 47t-46.5 132q0 84 48 131t133 47q86 0 133 -47t47 -131zM252 470q0 84 -52 84q-24 0 -38 -21.5
t-14 -62.5q0 -83 53 -83q51 0 51 83zM731 153q0 84 -52 84q-24 0 -38 -21.5t-14 -62.5q0 -83 53 -83q51 0 51 83zM1269 154q0 -85 -48 -132t-134 -47t-132.5 47t-46.5 132q0 84 48 131t133 47q86 0 133 -47t47 -131zM1140 153q0 84 -52 84q-24 0 -38 -21.5t-14 -62.5
q0 -83 53 -83q51 0 51 83z" />
    <glyph glyph-name="guilsinglleft" unicode="&#x2039;" horiz-adv-x="374" 
d="M307 5l-284 158v140l284 159l36 -117l-148 -111v-2l148 -110z" />
    <glyph glyph-name="guilsinglright" unicode="&#x203a;" horiz-adv-x="374" 
d="M67 4l-36 117l148 111v2l-148 110l36 117l284 -158v-140z" />
    <glyph glyph-name="fraction" unicode="&#x2044;" horiz-adv-x="691" 
d="M153 -15h-143l528 654h143z" />
    <glyph glyph-name="Euro" unicode="&#x20ac;" horiz-adv-x="575" 
d="M28 348l-5 77h84q45 224 265 224q118 0 186 -39l-35 -137q-61 33 -123 33q-75 0 -98 -81h186l-5 -77h-193q-1 -8 -1 -30q0 -26 3 -39h161l5 -77h-149q27 -74 99 -74q59 0 120 33l27 -138q-61 -38 -185 -38q-225 0 -264 217h-83l5 77h72q-1 11 -1 32q0 25 1 37h-72z" />
    <glyph glyph-name="trademark" unicode="&#x2122;" horiz-adv-x="999" 
d="M821 252l6 262h-13l-66 -250h-132l-53 253h-11l-2 -265h-108l6 373h200l33 -243h13l46 243h193l3 -373h-115zM272 524v-272h-120v272h-119v101h370v-101h-131z" />
    <glyph glyph-name="minus" unicode="&#x2212;" horiz-adv-x="547" 
d="M31 172l3 139h480l3 -139h-486z" />
    <glyph glyph-name="apple" unicode="&#xf8ff;" horiz-adv-x="758" 
d="M583 148l69 -189l-189 69l-85 -181l-84 180l-187 -68l68 187l-181 86l181 83l-68 189l187 -69l86 181l83 -181l189 69l-69 -189l180 -82zM531 294l50 139l-139 -50l-63 133l-63 -133l-139 50l51 -139l-134 -63l134 -63l-51 -138l139 51l62 -135l64 135l139 -51l-50 140
l132 62z" />
    <glyph glyph-name="ff" unicode="&#xfb00;" horiz-adv-x="756" 
d="M268 0h-191v313l-80 6l4 122l75 22l1 20q4 105 51.5 154t146.5 49q85 0 144 -24l-34 -154q-39 17 -80 17q-47 0 -47 -52v-14l175 4l1 30q4 105 51.5 154t146.5 49q85 0 144 -24l-34 -154q-39 17 -80 17q-47 0 -47 -52v-24h122l-3 -144h-109v-315h-191v314l-166 1v-315z
" />
    <glyph glyph-name="fi" unicode="&#xfb01;" horiz-adv-x="648" 
d="M263 315v-315h-186v313l-80 6l4 122l75 22l1 30q4 105 51.5 154t146.5 49q85 0 144 -24l-34 -154q-39 17 -80 17q-47 0 -47 -52v-24h156l191 19v-478h-191v315h-151z" />
    <glyph glyph-name="fl" unicode="&#xfb02;" horiz-adv-x="682" 
d="M385 518q-39 17 -80 17q-47 0 -47 -52v-24h122l-3 -144h-109v-315h-191v313l-80 6l4 122l75 22l1 30q4 105 51.5 154t146.5 49q85 0 144 -24zM444 0v655l191 22v-677h-191z" />
    <glyph glyph-name="ffi" unicode="&#xfb03;" horiz-adv-x="1005" 
d="M268 0h-191v313l-80 6l4 122l75 22l1 20q4 105 51.5 154t146.5 49q85 0 144 -24l-34 -154q-39 17 -80 17q-47 0 -47 -52v-14l175 4l1 30q4 105 51.5 154t146.5 49q85 0 144 -24l-34 -154q-39 17 -80 17q-47 0 -47 -52v-24h156l191 19v-478h-191v315h-151v-315h-186v313
l-166 2v-315z" />
    <glyph glyph-name="ffl" unicode="&#xfb04;" horiz-adv-x="1039" 
d="M801 0v655l191 22v-677h-191zM268 0h-191v313l-80 6l4 122l75 22l1 20q4 105 51.5 154t146.5 49q85 0 144 -24l-34 -154q-39 17 -80 17q-47 0 -47 -52v-14l175 4l1 30q4 105 51.5 154t146.5 49q85 0 144 -24l-34 -154q-39 17 -80 17q-47 0 -47 -52v-24h122l-3 -144h-109
v-315h-191v313l-166 2v-315z" />
    <glyph glyph-name="CR" horiz-adv-x="184" 
 />
    </font>
</defs>
</svg>
